<svg width="948" height="166" viewBox="0 0 948 166" version="1.1" xmlns="http://www.w3.org/2000/svg" xmlns:xlink="http://www.w3.org/1999/xlink" xmlns:figma="http://www.figma.com/figma/ns">
<title>cornerstone_logo_with_tagline_041817</title>
<desc>Created using Figma</desc>
<g id="Canvas" transform="translate(163 159)" figma:type="canvas">
<g id="cdrawing12" figma:type="frame">
<g id="layer1" figma:type="frame">
<g id="g5644" figma:type="frame">
<g id="rect5626" figma:type="vector">
<use xlink:href="#path0_fill" transform="matrix(0.474126 0.474126 -0.474126 0.474126 -82.3986 -158.006)" fill="#FFFFFF"/>
</g>
<g id="rect5628" figma:type="vector">
<use xlink:href="#path0_fill" transform="matrix(0.474126 0.474126 -0.474126 0.474126 -53.951 -129.558)" fill="#FFFFFF"/>
</g>
<g id="rect5630" figma:type="vector">
<use xlink:href="#path1_fill" transform="matrix(0.474126 0.474126 -0.474126 0.474126 -25.5035 -101.111)" fill="#FFFFFF"/>
</g>
<g id="rect5632" figma:type="vector">
<use xlink:href="#path0_fill" transform="matrix(0.474126 0.474126 -0.474126 0.474126 -110.846 -129.558)" fill="#FFFFFF"/>
</g>
<g id="rect5636" figma:type="vector">
<use xlink:href="#path1_fill" transform="matrix(0.474126 0.474126 -0.474126 0.474126 -53.951 -72.6631)" fill="#FFFFFF"/>
</g>
<g id="rect5638" figma:type="vector">
<use xlink:href="#path0_fill" transform="matrix(0.474126 0.474126 -0.474126 0.474126 -139.294 -101.111)" fill="#FFFFFF"/>
</g>
<g id="rect5640" figma:type="vector">
<use xlink:href="#path0_fill" transform="matrix(0.474126 0.474126 -0.474126 0.474126 -110.846 -72.6631)" fill="#FFFFFF"/>
</g>
<g id="rect5642" figma:type="vector">
<use xlink:href="#path1_fill" transform="matrix(0.474126 0.474126 -0.474126 0.474126 -82.3986 -44.2155)" fill="#FFFFFF"/>
</g>
</g>
</g>
</g>
<g id="CORNERSTONE" figma:type="text">
<use xlink:href="#path2_fill" transform="translate(-28 -170)" fill="#FFFFFF"/>
</g>
<g id="Building great leaders, together." figma:type="text">
<use xlink:href="#path3_fill" transform="translate(140 -49)" fill="#FFFFFF"/>
</g>
</g>
<defs>
<path id="path0_fill" d="M 50 3.78906e-06L 4.6875e-06 3.78906e-06L 4.6875e-06 50L 50 50L 50 3.78906e-06Z"/>
<path id="path1_fill" d="M 50 3.78906e-06L 4.6875e-06 3.78906e-06L 4.6875e-06 50L 50 50L 50 3.78906e-06Z"/>
<path id="path2_fill" d="M 46.08 133.2C 32.08 133.2 21.4 129.8 14.04 123C 6.68 116.12 3 106.36 3 93.72C 3 80.68 6.6 70.72 13.8 63.84C 21.08 56.96 31.8 53.52 45.96 53.52C 50.52 53.52 54.64 53.88 58.32 54.6C 62.08 55.24 65.84 56.24 69.6 57.6L 69.6 77.28C 62.72 74.24 55.36 72.72 47.52 72.72C 40.16 72.72 34.72 74.4 31.2 77.76C 27.76 81.12 26.04 86.44 26.04 93.72C 26.04 100.76 27.84 105.92 31.44 109.2C 35.12 112.4 40.56 114 47.76 114C 55.68 114 63.04 112.52 69.84 109.56L 69.84 129.36C 62.4 131.92 54.48 133.2 46.08 133.2ZM 115.371 133.2C 102.331 133.2 92.4906 130.04 85.8506 123.72C 79.2106 117.32 75.8906 107.28 75.8906 93.6C 75.8906 79.52 79.1706 69.32 85.7306 63C 92.3706 56.68 102.251 53.52 115.371 53.52C 128.491 53.52 138.331 56.72 144.891 63.12C 151.531 69.44 154.851 79.6 154.851 93.6C 154.851 107.2 151.531 117.2 144.891 123.6C 138.251 130 128.411 133.2 115.371 133.2ZM 115.371 114C 121.131 114 125.291 112.4 127.851 109.2C 130.491 105.92 131.811 100.72 131.811 93.6C 131.811 86.08 130.531 80.72 127.971 77.52C 125.411 74.32 121.211 72.72 115.371 72.72C 109.531 72.72 105.331 74.32 102.771 77.52C 100.211 80.72 98.9306 86.08 98.9306 93.6C 98.9306 100.72 100.211 105.92 102.771 109.2C 105.411 112.4 109.611 114 115.371 114ZM 163.252 54.72L 203.452 54.72C 212.572 54.72 219.452 57.2 224.092 62.16C 228.732 67.12 231.052 73.8 231.052 82.2C 231.052 87.32 229.772 91.88 227.212 95.88C 224.652 99.8 221.172 102.84 216.772 105C 217.652 105.72 218.412 106.56 219.052 107.52C 219.692 108.48 220.412 109.88 221.212 111.72L 230.092 132L 206.572 132L 198.412 113.4C 197.772 111.96 196.972 110.96 196.012 110.4C 195.132 109.76 193.852 109.44 192.172 109.44L 185.812 109.44L 185.812 132L 163.252 132L 163.252 54.72ZM 197.692 92.16C 200.972 92.16 203.492 91.32 205.252 89.64C 207.092 87.88 208.012 85.4 208.012 82.2C 208.012 75.4 204.812 72 198.412 72L 185.812 72L 185.812 92.16L 197.692 92.16ZM 239.423 54.72L 258.623 54.72L 287.783 95.64L 287.783 54.72L 310.343 54.72L 310.343 132L 291.023 132L 261.983 91.2L 261.983 132L 239.423 132L 239.423 54.72ZM 321.103 54.72L 379.663 54.72L 379.663 72L 343.663 72L 343.663 84.6L 375.223 84.6L 375.223 102.12L 343.663 102.12L 343.663 114.72L 379.663 114.72L 379.663 132L 321.103 132L 321.103 54.72ZM 386.845 54.72L 427.045 54.72C 436.165 54.72 443.045 57.2 447.685 62.16C 452.325 67.12 454.645 73.8 454.645 82.2C 454.645 87.32 453.365 91.88 450.805 95.88C 448.245 99.8 444.765 102.84 440.365 105C 441.245 105.72 442.005 106.56 442.645 107.52C 443.285 108.48 444.005 109.88 444.805 111.72L 453.685 132L 430.165 132L 422.005 113.4C 421.365 111.96 420.565 110.96 419.605 110.4C 418.725 109.76 417.445 109.44 415.765 109.44L 409.405 109.44L 409.405 132L 386.845 132L 386.845 54.72ZM 421.285 92.16C 424.565 92.16 427.085 91.32 428.845 89.64C 430.685 87.88 431.605 85.4 431.605 82.2C 431.605 75.4 428.405 72 422.005 72L 409.405 72L 409.405 92.16L 421.285 92.16ZM 488.337 133.2C 483.057 133.2 478.097 132.8 473.457 132C 468.817 131.12 464.897 129.92 461.697 128.4L 461.697 109.8C 465.377 111.48 469.417 112.84 473.817 113.88C 478.217 114.92 482.297 115.44 486.057 115.44C 490.377 115.44 493.457 115.08 495.297 114.36C 497.217 113.56 498.177 112.04 498.177 109.8C 498.177 108.36 497.697 107.2 496.737 106.32C 495.857 105.36 494.537 104.56 492.777 103.92C 491.017 103.2 488.217 102.24 484.377 101.04C 483.097 100.72 482.137 100.44 481.497 100.2C 476.217 98.52 472.057 96.68 469.017 94.68C 466.057 92.68 463.897 90.28 462.537 87.48C 461.257 84.6 460.617 81.04 460.617 76.8C 460.617 69.2 463.337 63.44 468.777 59.52C 474.217 55.52 482.217 53.52 492.777 53.52C 496.857 53.52 501.137 53.88 505.617 54.6C 510.177 55.24 513.937 56.04 516.897 57L 516.897 75.72C 509.857 72.92 503.017 71.52 496.377 71.52C 492.137 71.52 488.937 71.84 486.777 72.48C 484.697 73.12 483.657 74.52 483.657 76.68C 483.657 78.04 484.097 79.12 484.977 79.92C 485.857 80.72 487.177 81.44 488.937 82.08C 490.777 82.64 493.857 83.48 498.177 84.6C 504.337 86.28 509.057 88.32 512.337 90.72C 515.697 93.04 518.017 95.72 519.297 98.76C 520.577 101.8 521.217 105.48 521.217 109.8C 521.217 117 518.417 122.72 512.817 126.96C 507.297 131.12 499.137 133.2 488.337 133.2ZM 543.453 71.52L 521.733 71.52L 521.733 54.72L 587.733 54.72L 587.733 71.52L 566.013 71.52L 566.013 132L 543.453 132L 543.453 71.52ZM 624.199 133.2C 611.159 133.2 601.319 130.04 594.679 123.72C 588.039 117.32 584.719 107.28 584.719 93.6C 584.719 79.52 587.999 69.32 594.559 63C 601.199 56.68 611.079 53.52 624.199 53.52C 637.319 53.52 647.159 56.72 653.719 63.12C 660.359 69.44 663.679 79.6 663.679 93.6C 663.679 107.2 660.359 117.2 653.719 123.6C 647.079 130 637.239 133.2 624.199 133.2ZM 624.199 114C 629.959 114 634.119 112.4 636.679 109.2C 639.319 105.92 640.639 100.72 640.639 93.6C 640.639 86.08 639.359 80.72 636.799 77.52C 634.239 74.32 630.039 72.72 624.199 72.72C 618.359 72.72 614.159 74.32 611.599 77.52C 609.039 80.72 607.759 86.08 607.759 93.6C 607.759 100.72 609.039 105.92 611.599 109.2C 614.239 112.4 618.439 114 624.199 114ZM 672.08 54.72L 691.28 54.72L 720.44 95.64L 720.44 54.72L 743 54.72L 743 132L 723.68 132L 694.64 91.2L 694.64 132L 672.08 132L 672.08 54.72ZM 753.759 54.72L 812.319 54.72L 812.319 72L 776.319 72L 776.319 84.6L 807.879 84.6L 807.879 102.12L 776.319 102.12L 776.319 114.72L 812.319 114.72L 812.319 132L 753.759 132L 753.759 54.72Z"/>
<path id="path3_fill" d="M 6.864 19.664L 19.712 19.664C 22 19.664 23.7307 20.148 24.904 21.116C 26.1067 22.0547 26.708 23.404 26.708 25.164C 26.708 25.692 26.6347 26.352 26.488 27.144C 25.8133 30.2827 24.1853 32.3653 21.604 33.392C 22.748 33.7733 23.6133 34.3747 24.2 35.196C 24.816 35.988 25.124 36.9707 25.124 38.144C 25.124 38.6427 25.0507 39.2293 24.904 39.904C 24.2587 42.6907 23.1293 44.744 21.516 46.064C 19.9027 47.3547 17.6293 48 14.696 48L 0.88 48L 6.864 19.664ZM 17.116 32.072C 18.8173 32.072 20.152 31.6613 21.12 30.84C 22.1173 30.0187 22.7627 28.8747 23.056 27.408C 23.232 26.704 23.32 26.0587 23.32 25.472C 23.32 24.4453 22.9533 23.6827 22.22 23.184C 21.516 22.6853 20.284 22.436 18.524 22.436L 9.9 22.436L 7.832 32.072L 17.116 32.072ZM 14.652 45.272C 16.5587 45.272 18.04 44.8467 19.096 43.996C 20.152 43.1453 20.8853 41.7373 21.296 39.772C 21.4427 39.0387 21.516 38.452 21.516 38.012C 21.516 36.9267 21.12 36.12 20.328 35.592C 19.536 35.064 18.1867 34.8 16.28 34.8L 7.26 34.8L 5.06 45.272L 14.652 45.272ZM 35.6819 48.44C 33.7166 48.44 32.2059 47.956 31.1499 46.988C 30.0939 46.02 29.5659 44.612 29.5659 42.764C 29.5659 42.0307 29.6539 41.224 29.8299 40.344L 32.6459 27.144L 36.2539 27.144L 33.4379 40.476C 33.2913 41.092 33.2179 41.752 33.2179 42.456C 33.2179 43.5707 33.5553 44.3627 34.2299 44.832C 34.9339 45.3013 36.0779 45.536 37.6619 45.536C 38.9233 45.536 40.1553 45.3013 41.3579 44.832C 42.5899 44.3627 43.7486 43.7173 44.8339 42.896L 48.1779 27.144L 51.7859 27.144L 47.3859 48L 44.1299 48L 44.3939 45.624C 41.6366 47.5013 38.7326 48.44 35.6819 48.44ZM 62.5797 18.96L 66.5837 18.96L 65.8797 22.26L 61.8757 22.26L 62.5797 18.96ZM 60.5557 30.004L 57.3437 30.004L 58.3117 27.144L 64.7797 27.144L 60.3797 48L 56.7717 48L 60.5557 30.004ZM 70.9792 48.44C 69.8352 48.44 68.9406 48.1467 68.2952 47.56C 67.6499 46.9733 67.3272 46.1373 67.3272 45.052C 67.3272 44.524 67.3859 44.0107 67.5032 43.512L 72.8712 18.344L 76.4792 18.344L 71.1992 43.116C 71.1112 43.5853 71.0672 43.9667 71.0672 44.26C 71.0672 44.7 71.1699 45.008 71.3752 45.184C 71.6099 45.3307 71.9912 45.404 72.5192 45.404C 73.1646 45.404 73.8392 45.316 74.5432 45.14L 73.9712 48C 73.1206 48.2933 72.1232 48.44 70.9792 48.44ZM 86.5418 48.44C 84.1658 48.44 82.3178 47.8533 80.9978 46.68C 79.6778 45.4773 79.0178 43.6733 79.0178 41.268C 79.0178 40.124 79.1645 38.9067 79.4578 37.616C 80.2205 33.9493 81.6138 31.2213 83.6378 29.432C 85.6618 27.6133 88.1845 26.704 91.2058 26.704C 93.9045 26.704 96.0898 27.364 97.7618 28.684L 99.9618 18.344L 103.57 18.344L 97.2778 48L 94.1978 48L 94.3738 45.8C 93.2005 46.7093 91.9831 47.384 90.7218 47.824C 89.4898 48.2347 88.0965 48.44 86.5418 48.44ZM 88.0818 45.536C 90.5751 45.536 92.7898 44.7 94.7258 43.028L 97.1018 31.676C 96.5151 31.0307 95.7525 30.532 94.8138 30.18C 93.8751 29.7987 92.7898 29.608 91.5578 29.608C 89.2698 29.608 87.4218 30.2533 86.0138 31.544C 84.6351 32.8053 83.6525 34.8293 83.0658 37.616C 82.7725 39.024 82.6258 40.1533 82.6258 41.004C 82.6258 42.5587 83.0511 43.7027 83.9018 44.436C 84.7818 45.1693 86.1751 45.536 88.0818 45.536ZM 112.466 18.96L 116.47 18.96L 115.766 22.26L 111.762 22.26L 112.466 18.96ZM 110.442 30.004L 107.23 30.004L 108.198 27.144L 114.666 27.144L 110.266 48L 106.658 48L 110.442 30.004ZM 120.866 27.144L 124.122 27.144L 123.858 29.52C 126.557 27.6427 129.446 26.704 132.526 26.704C 136.662 26.704 138.73 28.4493 138.73 31.94C 138.73 32.6733 138.642 33.48 138.466 34.36L 135.606 48L 131.998 48L 134.858 34.492C 135.034 33.7 135.122 33.0253 135.122 32.468C 135.122 31.412 134.785 30.6787 134.11 30.268C 133.465 29.828 132.321 29.608 130.678 29.608C 129.446 29.608 128.17 29.8573 126.85 30.356C 125.53 30.8253 124.386 31.456 123.418 32.248L 120.074 48L 116.466 48L 120.866 27.144ZM 148.82 55.744C 148.028 55.744 147.104 55.7 146.048 55.612C 144.992 55.524 144.2 55.4213 143.672 55.304L 144.332 52.224C 144.86 52.4 145.564 52.532 146.444 52.62C 147.324 52.708 148.13 52.752 148.864 52.752C 151.122 52.752 152.956 52.3707 154.364 51.608C 155.801 50.8747 156.696 49.7013 157.048 48.088L 157.488 46.02C 155.288 47.34 152.838 48 150.14 48C 147.764 48 145.901 47.4133 144.552 46.24C 143.202 45.0667 142.528 43.2773 142.528 40.872C 142.528 39.816 142.66 38.6573 142.924 37.396C 143.716 33.6707 145.065 30.9573 146.972 29.256C 148.878 27.5547 151.416 26.704 154.584 26.704C 156.138 26.704 157.444 26.924 158.5 27.364C 159.585 27.7747 160.524 28.4347 161.316 29.344L 162.02 27.144L 165.1 27.144L 160.744 47.604C 160.186 50.2147 158.896 52.224 156.872 53.632C 154.848 55.04 152.164 55.744 148.82 55.744ZM 151.724 45.096C 154.1 45.096 156.241 44.4067 158.148 43.028L 160.436 32.116C 159.292 30.444 157.444 29.608 154.892 29.608C 152.457 29.608 150.594 30.224 149.304 31.456C 148.042 32.6587 147.118 34.6387 146.532 37.396C 146.268 38.628 146.136 39.6987 146.136 40.608C 146.136 42.2213 146.576 43.38 147.456 44.084C 148.365 44.7587 149.788 45.096 151.724 45.096ZM 190.843 55.744C 190.051 55.744 189.127 55.7 188.071 55.612C 187.015 55.524 186.223 55.4213 185.695 55.304L 186.355 52.224C 186.883 52.4 187.587 52.532 188.467 52.62C 189.347 52.708 190.154 52.752 190.887 52.752C 193.146 52.752 194.979 52.3707 196.387 51.608C 197.824 50.8747 198.719 49.7013 199.071 48.088L 199.511 46.02C 197.311 47.34 194.862 48 192.163 48C 189.787 48 187.924 47.4133 186.575 46.24C 185.226 45.0667 184.551 43.2773 184.551 40.872C 184.551 39.816 184.683 38.6573 184.947 37.396C 185.739 33.6707 187.088 30.9573 188.995 29.256C 190.902 27.5547 193.439 26.704 196.607 26.704C 198.162 26.704 199.467 26.924 200.523 27.364C 201.608 27.7747 202.547 28.4347 203.339 29.344L 204.043 27.144L 207.123 27.144L 202.767 47.604C 202.21 50.2147 200.919 52.224 198.895 53.632C 196.871 55.04 194.187 55.744 190.843 55.744ZM 193.747 45.096C 196.123 45.096 198.264 44.4067 200.171 43.028L 202.459 32.116C 201.315 30.444 199.467 29.608 196.915 29.608C 194.48 29.608 192.618 30.224 191.327 31.456C 190.066 32.6587 189.142 34.6387 188.555 37.396C 188.291 38.628 188.159 39.6987 188.159 40.608C 188.159 42.2213 188.599 43.38 189.479 44.084C 190.388 44.7587 191.811 45.096 193.747 45.096ZM 213.292 27.144L 216.548 27.144L 216.24 29.784C 217.442 29.1093 218.792 28.4933 220.288 27.936C 221.784 27.3787 223.236 26.968 224.644 26.704L 224.072 29.52C 222.693 29.784 221.212 30.1947 219.628 30.752C 218.044 31.3093 216.768 31.8813 215.8 32.468L 212.5 48L 208.892 48L 213.292 27.144ZM 233.363 48.44C 227.233 48.44 224.167 45.932 224.167 40.916C 224.167 39.8893 224.299 38.7453 224.563 37.484C 226.118 30.2973 230.21 26.704 236.839 26.704C 239.333 26.704 241.21 27.276 242.471 28.42C 243.733 29.564 244.363 31.104 244.363 33.04C 244.363 33.7733 244.275 34.536 244.099 35.328L 243.263 39.244L 227.819 39.244C 227.731 39.948 227.687 40.5787 227.687 41.136C 227.687 42.2507 227.907 43.1307 228.347 43.776C 228.787 44.392 229.506 44.8467 230.503 45.14C 231.53 45.404 232.923 45.536 234.683 45.536C 236.825 45.536 238.878 45.1693 240.843 44.436L 240.227 47.252C 238.262 48.044 235.974 48.44 233.363 48.44ZM 240.579 36.648L 240.975 34.932C 241.122 34.1987 241.195 33.5973 241.195 33.128C 241.195 31.9547 240.814 31.0747 240.051 30.488C 239.289 29.9013 238.042 29.608 236.311 29.608C 233.994 29.608 232.219 30.18 230.987 31.324C 229.755 32.468 228.875 34.2427 228.347 36.648L 240.579 36.648ZM 255.108 48.44C 250.034 48.44 247.496 46.1667 247.496 41.62C 247.496 40.5933 247.628 39.4493 247.892 38.188C 248.391 35.7533 249.242 33.6707 250.444 31.94C 251.647 30.2093 253.084 28.904 254.756 28.024C 256.428 27.144 258.218 26.704 260.124 26.704C 261.444 26.704 262.588 26.8653 263.556 27.188C 264.524 27.4813 265.448 27.98 266.328 28.684L 266.636 27.144L 270.244 27.144L 265.844 48L 262.764 48L 262.94 45.8C 261.767 46.7093 260.55 47.384 259.288 47.824C 258.056 48.2347 256.663 48.44 255.108 48.44ZM 256.648 45.536C 259.142 45.536 261.356 44.7 263.292 43.028L 265.668 31.676C 265.052 31.0013 264.334 30.488 263.512 30.136C 262.691 29.784 261.679 29.608 260.476 29.608C 255.695 29.608 252.703 32.468 251.5 38.188C 251.236 39.42 251.104 40.4907 251.104 41.4C 251.104 42.896 251.53 43.9667 252.38 44.612C 253.231 45.228 254.654 45.536 256.648 45.536ZM 278.376 48.44C 276.762 48.44 275.516 48.0587 274.636 47.296C 273.756 46.504 273.316 45.3893 273.316 43.952C 273.316 43.4533 273.389 42.8667 273.536 42.192L 276.088 30.004L 272.92 30.004L 273.536 27.144L 276.704 27.144L 277.804 21.996L 281.632 20.896L 280.312 27.144L 286.076 27.144L 285.24 30.004L 279.696 30.004L 277.144 42.016C 277.026 42.4853 276.968 42.9547 276.968 43.424C 276.968 44.1867 277.188 44.7293 277.628 45.052C 278.097 45.3747 278.845 45.536 279.872 45.536C 280.869 45.536 281.866 45.3893 282.864 45.096L 282.248 47.824C 281.074 48.2347 279.784 48.44 278.376 48.44ZM 307.78 48.44C 306.636 48.44 305.741 48.1467 305.096 47.56C 304.451 46.9733 304.128 46.1373 304.128 45.052C 304.128 44.524 304.187 44.0107 304.304 43.512L 309.672 18.344L 313.28 18.344L 308 43.116C 307.912 43.5853 307.868 43.9667 307.868 44.26C 307.868 44.7 307.971 45.008 308.176 45.184C 308.411 45.3307 308.792 45.404 309.32 45.404C 309.965 45.404 310.64 45.316 311.344 45.14L 310.772 48C 309.921 48.2933 308.924 48.44 307.78 48.44ZM 325.059 48.44C 318.928 48.44 315.863 45.932 315.863 40.916C 315.863 39.8893 315.995 38.7453 316.259 37.484C 317.813 30.2973 321.905 26.704 328.535 26.704C 331.028 26.704 332.905 27.276 334.167 28.42C 335.428 29.564 336.059 31.104 336.059 33.04C 336.059 33.7733 335.971 34.536 335.795 35.328L 334.959 39.244L 319.515 39.244C 319.427 39.948 319.383 40.5787 319.383 41.136C 319.383 42.2507 319.603 43.1307 320.043 43.776C 320.483 44.392 321.201 44.8467 322.199 45.14C 323.225 45.404 324.619 45.536 326.379 45.536C 328.52 45.536 330.573 45.1693 332.539 44.436L 331.923 47.252C 329.957 48.044 327.669 48.44 325.059 48.44ZM 332.275 36.648L 332.671 34.932C 332.817 34.1987 332.891 33.5973 332.891 33.128C 332.891 31.9547 332.509 31.0747 331.747 30.488C 330.984 29.9013 329.737 29.608 328.007 29.608C 325.689 29.608 323.915 30.18 322.683 31.324C 321.451 32.468 320.571 34.2427 320.043 36.648L 332.275 36.648ZM 346.804 48.44C 341.729 48.44 339.192 46.1667 339.192 41.62C 339.192 40.5933 339.324 39.4493 339.588 38.188C 340.086 35.7533 340.937 33.6707 342.14 31.94C 343.342 30.2093 344.78 28.904 346.452 28.024C 348.124 27.144 349.913 26.704 351.82 26.704C 353.14 26.704 354.284 26.8653 355.252 27.188C 356.22 27.4813 357.144 27.98 358.024 28.684L 358.332 27.144L 361.94 27.144L 357.54 48L 354.46 48L 354.636 45.8C 353.462 46.7093 352.245 47.384 350.984 47.824C 349.752 48.2347 348.358 48.44 346.804 48.44ZM 348.344 45.536C 350.837 45.536 353.052 44.7 354.988 43.028L 357.364 31.676C 356.748 31.0013 356.029 30.488 355.208 30.136C 354.386 29.784 353.374 29.608 352.172 29.608C 347.39 29.608 344.398 32.468 343.196 38.188C 342.932 39.42 342.8 40.4907 342.8 41.4C 342.8 42.896 343.225 43.9667 344.076 44.612C 344.926 45.228 346.349 45.536 348.344 45.536ZM 372.112 48.44C 369.736 48.44 367.888 47.8533 366.568 46.68C 365.248 45.4773 364.588 43.6733 364.588 41.268C 364.588 40.124 364.735 38.9067 365.028 37.616C 365.791 33.9493 367.184 31.2213 369.208 29.432C 371.232 27.6133 373.755 26.704 376.776 26.704C 379.475 26.704 381.66 27.364 383.332 28.684L 385.532 18.344L 389.14 18.344L 382.848 48L 379.768 48L 379.944 45.8C 378.771 46.7093 377.553 47.384 376.292 47.824C 375.06 48.2347 373.667 48.44 372.112 48.44ZM 373.652 45.536C 376.145 45.536 378.36 44.7 380.296 43.028L 382.672 31.676C 382.085 31.0307 381.323 30.532 380.384 30.18C 379.445 29.7987 378.36 29.608 377.128 29.608C 374.84 29.608 372.992 30.2533 371.584 31.544C 370.205 32.8053 369.223 34.8293 368.636 37.616C 368.343 39.024 368.196 40.1533 368.196 41.004C 368.196 42.5587 368.621 43.7027 369.472 44.436C 370.352 45.1693 371.745 45.536 373.652 45.536ZM 399.137 48.44C 393.006 48.44 389.941 45.932 389.941 40.916C 389.941 39.8893 390.073 38.7453 390.337 37.484C 391.891 30.2973 395.983 26.704 402.613 26.704C 405.106 26.704 406.983 27.276 408.245 28.42C 409.506 29.564 410.137 31.104 410.137 33.04C 410.137 33.7733 410.049 34.536 409.873 35.328L 409.037 39.244L 393.593 39.244C 393.505 39.948 393.461 40.5787 393.461 41.136C 393.461 42.2507 393.681 43.1307 394.121 43.776C 394.561 44.392 395.279 44.8467 396.277 45.14C 397.303 45.404 398.697 45.536 400.457 45.536C 402.598 45.536 404.651 45.1693 406.617 44.436L 406.001 47.252C 404.035 48.044 401.747 48.44 399.137 48.44ZM 406.353 36.648L 406.749 34.932C 406.895 34.1987 406.969 33.5973 406.969 33.128C 406.969 31.9547 406.587 31.0747 405.825 30.488C 405.062 29.9013 403.815 29.608 402.085 29.608C 399.767 29.608 397.993 30.18 396.761 31.324C 395.529 32.468 394.649 34.2427 394.121 36.648L 406.353 36.648ZM 416.878 27.144L 420.134 27.144L 419.826 29.784C 421.028 29.1093 422.378 28.4933 423.874 27.936C 425.37 27.3787 426.822 26.968 428.23 26.704L 427.658 29.52C 426.279 29.784 424.798 30.1947 423.214 30.752C 421.63 31.3093 420.354 31.8813 419.386 32.468L 416.086 48L 412.478 48L 416.878 27.144ZM 434.585 48.44C 433.412 48.44 432.209 48.3373 430.977 48.132C 429.745 47.956 428.719 47.736 427.897 47.472L 428.557 44.304C 430.493 45.008 432.561 45.36 434.761 45.36C 436.668 45.36 438.047 45.1693 438.897 44.788C 439.748 44.3773 440.291 43.6293 440.525 42.544C 440.584 42.192 440.613 41.9573 440.613 41.84C 440.613 41.1653 440.335 40.652 439.777 40.3C 439.22 39.948 438.179 39.4933 436.653 38.936L 435.465 38.496C 433.764 37.88 432.488 37.2347 431.637 36.56C 430.816 35.8853 430.405 34.9467 430.405 33.744C 430.405 33.5093 430.464 33.0693 430.581 32.424C 430.992 30.488 431.901 29.0507 433.309 28.112C 434.747 27.1733 436.961 26.704 439.953 26.704C 442.153 26.704 444.06 26.9827 445.673 27.54L 445.013 30.708C 444.221 30.4147 443.356 30.1947 442.417 30.048C 441.508 29.872 440.657 29.784 439.865 29.784C 438.076 29.784 436.727 29.9747 435.817 30.356C 434.937 30.7373 434.395 31.412 434.189 32.38C 434.131 32.6733 434.101 32.8933 434.101 33.04C 434.101 33.5093 434.263 33.9053 434.585 34.228C 434.908 34.5213 435.333 34.7853 435.861 35.02C 436.419 35.2253 437.357 35.5627 438.677 36.032C 440.701 36.7067 442.139 37.4107 442.989 38.144C 443.869 38.848 444.309 39.816 444.309 41.048C 444.309 41.5467 444.251 42.0307 444.133 42.5C 443.693 44.5827 442.74 46.0933 441.273 47.032C 439.807 47.9707 437.577 48.44 434.585 48.44ZM 449.151 45.492L 452.407 45.492L 448.887 53.28L 446.247 53.28L 449.151 45.492ZM 481.36 48.44C 479.747 48.44 478.5 48.0587 477.62 47.296C 476.74 46.504 476.3 45.3893 476.3 43.952C 476.3 43.4533 476.373 42.8667 476.52 42.192L 479.072 30.004L 475.904 30.004L 476.52 27.144L 479.688 27.144L 480.788 21.996L 484.616 20.896L 483.296 27.144L 489.06 27.144L 488.224 30.004L 482.68 30.004L 480.128 42.016C 480.011 42.4853 479.952 42.9547 479.952 43.424C 479.952 44.1867 480.172 44.7293 480.612 45.052C 481.081 45.3747 481.829 45.536 482.856 45.536C 483.853 45.536 484.851 45.3893 485.848 45.096L 485.232 47.824C 484.059 48.2347 482.768 48.44 481.36 48.44ZM 497.948 48.44C 495.132 48.44 493.006 47.8093 491.568 46.548C 490.16 45.2867 489.456 43.4387 489.456 41.004C 489.456 39.948 489.588 38.804 489.852 37.572C 490.615 33.9347 491.994 31.2213 493.988 29.432C 496.012 27.6133 498.872 26.704 502.568 26.704C 505.384 26.704 507.511 27.3493 508.948 28.64C 510.386 29.9013 511.104 31.7347 511.104 34.14C 511.104 35.196 510.972 36.34 510.708 37.572C 509.946 41.2093 508.552 43.9373 506.528 45.756C 504.534 47.5453 501.674 48.44 497.948 48.44ZM 498.608 45.36C 501.072 45.36 502.95 44.744 504.24 43.512C 505.56 42.28 506.514 40.3 507.1 37.572C 507.394 36.1053 507.54 34.9613 507.54 34.14C 507.54 32.5853 507.1 31.4707 506.22 30.796C 505.37 30.1213 503.932 29.784 501.908 29.784C 499.474 29.784 497.596 30.4 496.276 31.632C 494.986 32.864 494.047 34.844 493.46 37.572C 493.167 39.0387 493.02 40.1827 493.02 41.004C 493.02 42.5587 493.446 43.6733 494.296 44.348C 495.176 45.0227 496.614 45.36 498.608 45.36ZM 519.511 55.744C 518.719 55.744 517.795 55.7 516.739 55.612C 515.683 55.524 514.891 55.4213 514.363 55.304L 515.023 52.224C 515.551 52.4 516.255 52.532 517.135 52.62C 518.015 52.708 518.822 52.752 519.555 52.752C 521.814 52.752 523.647 52.3707 525.055 51.608C 526.492 50.8747 527.387 49.7013 527.739 48.088L 528.179 46.02C 525.979 47.34 523.53 48 520.831 48C 518.455 48 516.592 47.4133 515.243 46.24C 513.894 45.0667 513.219 43.2773 513.219 40.872C 513.219 39.816 513.351 38.6573 513.615 37.396C 514.407 33.6707 515.756 30.9573 517.663 29.256C 519.57 27.5547 522.107 26.704 525.275 26.704C 526.83 26.704 528.135 26.924 529.191 27.364C 530.276 27.7747 531.215 28.4347 532.007 29.344L 532.711 27.144L 535.791 27.144L 531.435 47.604C 530.878 50.2147 529.587 52.224 527.563 53.632C 525.539 55.04 522.855 55.744 519.511 55.744ZM 522.415 45.096C 524.791 45.096 526.932 44.4067 528.839 43.028L 531.127 32.116C 529.983 30.444 528.135 29.608 525.583 29.608C 523.148 29.608 521.286 30.224 519.995 31.456C 518.734 32.6587 517.81 34.6387 517.223 37.396C 516.959 38.628 516.827 39.6987 516.827 40.608C 516.827 42.2213 517.267 43.38 518.147 44.084C 519.056 44.7587 520.479 45.096 522.415 45.096ZM 546.348 48.44C 540.217 48.44 537.152 45.932 537.152 40.916C 537.152 39.8893 537.284 38.7453 537.548 37.484C 539.102 30.2973 543.194 26.704 549.824 26.704C 552.317 26.704 554.194 27.276 555.456 28.42C 556.717 29.564 557.348 31.104 557.348 33.04C 557.348 33.7733 557.26 34.536 557.084 35.328L 556.248 39.244L 540.804 39.244C 540.716 39.948 540.672 40.5787 540.672 41.136C 540.672 42.2507 540.892 43.1307 541.332 43.776C 541.772 44.392 542.49 44.8467 543.488 45.14C 544.514 45.404 545.908 45.536 547.668 45.536C 549.809 45.536 551.862 45.1693 553.828 44.436L 553.212 47.252C 551.246 48.044 548.958 48.44 546.348 48.44ZM 553.564 36.648L 553.96 34.932C 554.106 34.1987 554.18 33.5973 554.18 33.128C 554.18 31.9547 553.798 31.0747 553.036 30.488C 552.273 29.9013 551.026 29.608 549.296 29.608C 546.978 29.608 545.204 30.18 543.972 31.324C 542.74 32.468 541.86 34.2427 541.332 36.648L 553.564 36.648ZM 567.169 48.44C 565.555 48.44 564.309 48.0587 563.429 47.296C 562.549 46.504 562.109 45.3893 562.109 43.952C 562.109 43.4533 562.182 42.8667 562.329 42.192L 564.881 30.004L 561.713 30.004L 562.329 27.144L 565.497 27.144L 566.597 21.996L 570.425 20.896L 569.105 27.144L 574.869 27.144L 574.033 30.004L 568.489 30.004L 565.937 42.016C 565.819 42.4853 565.761 42.9547 565.761 43.424C 565.761 44.1867 565.981 44.7293 566.421 45.052C 566.89 45.3747 567.638 45.536 568.665 45.536C 569.662 45.536 570.659 45.3893 571.657 45.096L 571.041 47.824C 569.867 48.2347 568.577 48.44 567.169 48.44ZM 581.75 18.344L 585.358 18.344L 582.982 29.388C 585.563 27.5987 588.409 26.704 591.518 26.704C 593.542 26.704 595.082 27.1587 596.138 28.068C 597.194 28.9773 597.722 30.312 597.722 32.072C 597.722 32.7467 597.634 33.5093 597.458 34.36L 594.598 48L 590.99 48L 593.85 34.492C 593.997 33.6707 594.07 33.0253 594.07 32.556C 594.07 31.4707 593.733 30.708 593.058 30.268C 592.383 29.828 591.254 29.608 589.67 29.608C 588.497 29.608 587.235 29.872 585.886 30.4C 584.537 30.8987 583.363 31.5587 582.366 32.38L 579.066 48L 575.458 48L 581.75 18.344ZM 610.672 48.44C 604.541 48.44 601.476 45.932 601.476 40.916C 601.476 39.8893 601.608 38.7453 601.872 37.484C 603.427 30.2973 607.519 26.704 614.148 26.704C 616.641 26.704 618.519 27.276 619.78 28.42C 621.041 29.564 621.672 31.104 621.672 33.04C 621.672 33.7733 621.584 34.536 621.408 35.328L 620.572 39.244L 605.128 39.244C 605.04 39.948 604.996 40.5787 604.996 41.136C 604.996 42.2507 605.216 43.1307 605.656 43.776C 606.096 44.392 606.815 44.8467 607.812 45.14C 608.839 45.404 610.232 45.536 611.992 45.536C 614.133 45.536 616.187 45.1693 618.152 44.436L 617.536 47.252C 615.571 48.044 613.283 48.44 610.672 48.44ZM 617.888 36.648L 618.284 34.932C 618.431 34.1987 618.504 33.5973 618.504 33.128C 618.504 31.9547 618.123 31.0747 617.36 30.488C 616.597 29.9013 615.351 29.608 613.62 29.608C 611.303 29.608 609.528 30.18 608.296 31.324C 607.064 32.468 606.184 34.2427 605.656 36.648L 617.888 36.648ZM 628.413 27.144L 631.669 27.144L 631.361 29.784C 632.563 29.1093 633.913 28.4933 635.409 27.936C 636.905 27.3787 638.357 26.968 639.765 26.704L 639.193 29.52C 637.814 29.784 636.333 30.1947 634.749 30.752C 633.165 31.3093 631.889 31.8813 630.921 32.468L 627.621 48L 624.013 48L 628.413 27.144ZM 639.432 44.964L 642.688 44.964L 642.072 48L 638.816 48L 639.432 44.964Z"/>
</defs>
</svg>
