<svg width="948" height="163" viewBox="0 0 948 163" version="1.1" xmlns="http://www.w3.org/2000/svg" xmlns:xlink="http://www.w3.org/1999/xlink" xmlns:figma="http://www.figma.com/figma/ns">
<title>cornerstone_logo_041817</title>
<desc>Created using Figma</desc>
<g id="Canvas" transform="translate(163 159)" figma:type="canvas">
<g id="cdrawing12" figma:type="frame">
<g id="layer1" figma:type="frame">
<g id="g5644" figma:type="frame">
<g id="rect5626" figma:type="vector">
<use xlink:href="#path0_fill" transform="matrix(0.474126 0.474126 -0.474126 0.474126 -82.3986 -158.006)" fill="#FFFFFF"/>
</g>
<g id="rect5628" figma:type="vector">
<use xlink:href="#path0_fill" transform="matrix(0.474126 0.474126 -0.474126 0.474126 -53.951 -129.558)" fill="#FFFFFF"/>
</g>
<g id="rect5630" figma:type="vector">
<use xlink:href="#path1_fill" transform="matrix(0.474126 0.474126 -0.474126 0.474126 -25.5035 -101.111)" fill="#FFFFFF"/>
</g>
<g id="rect5632" figma:type="vector">
<use xlink:href="#path0_fill" transform="matrix(0.474126 0.474126 -0.474126 0.474126 -110.846 -129.558)" fill="#FFFFFF"/>
</g>
<g id="rect5636" figma:type="vector">
<use xlink:href="#path1_fill" transform="matrix(0.474126 0.474126 -0.474126 0.474126 -53.951 -72.6631)" fill="#FFFFFF"/>
</g>
<g id="rect5638" figma:type="vector">
<use xlink:href="#path0_fill" transform="matrix(0.474126 0.474126 -0.474126 0.474126 -139.294 -101.111)" fill="#FFFFFF"/>
</g>
<g id="rect5640" figma:type="vector">
<use xlink:href="#path0_fill" transform="matrix(0.474126 0.474126 -0.474126 0.474126 -110.846 -72.6631)" fill="#FFFFFF"/>
</g>
<g id="rect5642" figma:type="vector">
<use xlink:href="#path1_fill" transform="matrix(0.474126 0.474126 -0.474126 0.474126 -82.3986 -44.2155)" fill="#FFFFFF"/>
</g>
</g>
</g>
</g>
<g id="CORNERSTONE" figma:type="text">
<use xlink:href="#path2_fill" transform="translate(-28 -170)" fill="#FFFFFF"/>
</g>
</g>
<defs>
<path id="path0_fill" d="M 50 3.78906e-06L 4.6875e-06 3.78906e-06L 4.6875e-06 50L 50 50L 50 3.78906e-06Z"/>
<path id="path1_fill" d="M 50 3.78906e-06L 4.6875e-06 3.78906e-06L 4.6875e-06 50L 50 50L 50 3.78906e-06Z"/>
<path id="path2_fill" d="M 46.08 133.2C 32.08 133.2 21.4 129.8 14.04 123C 6.68 116.12 3 106.36 3 93.72C 3 80.68 6.6 70.72 13.8 63.84C 21.08 56.96 31.8 53.52 45.96 53.52C 50.52 53.52 54.64 53.88 58.32 54.6C 62.08 55.24 65.84 56.24 69.6 57.6L 69.6 77.28C 62.72 74.24 55.36 72.72 47.52 72.72C 40.16 72.72 34.72 74.4 31.2 77.76C 27.76 81.12 26.04 86.44 26.04 93.72C 26.04 100.76 27.84 105.92 31.44 109.2C 35.12 112.4 40.56 114 47.76 114C 55.68 114 63.04 112.52 69.84 109.56L 69.84 129.36C 62.4 131.92 54.48 133.2 46.08 133.2ZM 115.371 133.2C 102.331 133.2 92.4906 130.04 85.8506 123.72C 79.2106 117.32 75.8906 107.28 75.8906 93.6C 75.8906 79.52 79.1706 69.32 85.7306 63C 92.3706 56.68 102.251 53.52 115.371 53.52C 128.491 53.52 138.331 56.72 144.891 63.12C 151.531 69.44 154.851 79.6 154.851 93.6C 154.851 107.2 151.531 117.2 144.891 123.6C 138.251 130 128.411 133.2 115.371 133.2ZM 115.371 114C 121.131 114 125.291 112.4 127.851 109.2C 130.491 105.92 131.811 100.72 131.811 93.6C 131.811 86.08 130.531 80.72 127.971 77.52C 125.411 74.32 121.211 72.72 115.371 72.72C 109.531 72.72 105.331 74.32 102.771 77.52C 100.211 80.72 98.9306 86.08 98.9306 93.6C 98.9306 100.72 100.211 105.92 102.771 109.2C 105.411 112.4 109.611 114 115.371 114ZM 163.252 54.72L 203.452 54.72C 212.572 54.72 219.452 57.2 224.092 62.16C 228.732 67.12 231.052 73.8 231.052 82.2C 231.052 87.32 229.772 91.88 227.212 95.88C 224.652 99.8 221.172 102.84 216.772 105C 217.652 105.72 218.412 106.56 219.052 107.52C 219.692 108.48 220.412 109.88 221.212 111.72L 230.092 132L 206.572 132L 198.412 113.4C 197.772 111.96 196.972 110.96 196.012 110.4C 195.132 109.76 193.852 109.44 192.172 109.44L 185.812 109.44L 185.812 132L 163.252 132L 163.252 54.72ZM 197.692 92.16C 200.972 92.16 203.492 91.32 205.252 89.64C 207.092 87.88 208.012 85.4 208.012 82.2C 208.012 75.4 204.812 72 198.412 72L 185.812 72L 185.812 92.16L 197.692 92.16ZM 239.423 54.72L 258.623 54.72L 287.783 95.64L 287.783 54.72L 310.343 54.72L 310.343 132L 291.023 132L 261.983 91.2L 261.983 132L 239.423 132L 239.423 54.72ZM 321.103 54.72L 379.663 54.72L 379.663 72L 343.663 72L 343.663 84.6L 375.223 84.6L 375.223 102.12L 343.663 102.12L 343.663 114.72L 379.663 114.72L 379.663 132L 321.103 132L 321.103 54.72ZM 386.845 54.72L 427.045 54.72C 436.165 54.72 443.045 57.2 447.685 62.16C 452.325 67.12 454.645 73.8 454.645 82.2C 454.645 87.32 453.365 91.88 450.805 95.88C 448.245 99.8 444.765 102.84 440.365 105C 441.245 105.72 442.005 106.56 442.645 107.52C 443.285 108.48 444.005 109.88 444.805 111.72L 453.685 132L 430.165 132L 422.005 113.4C 421.365 111.96 420.565 110.96 419.605 110.4C 418.725 109.76 417.445 109.44 415.765 109.44L 409.405 109.44L 409.405 132L 386.845 132L 386.845 54.72ZM 421.285 92.16C 424.565 92.16 427.085 91.32 428.845 89.64C 430.685 87.88 431.605 85.4 431.605 82.2C 431.605 75.4 428.405 72 422.005 72L 409.405 72L 409.405 92.16L 421.285 92.16ZM 488.337 133.2C 483.057 133.2 478.097 132.8 473.457 132C 468.817 131.12 464.897 129.92 461.697 128.4L 461.697 109.8C 465.377 111.48 469.417 112.84 473.817 113.88C 478.217 114.92 482.297 115.44 486.057 115.44C 490.377 115.44 493.457 115.08 495.297 114.36C 497.217 113.56 498.177 112.04 498.177 109.8C 498.177 108.36 497.697 107.2 496.737 106.32C 495.857 105.36 494.537 104.56 492.777 103.92C 491.017 103.2 488.217 102.24 484.377 101.04C 483.097 100.72 482.137 100.44 481.497 100.2C 476.217 98.52 472.057 96.68 469.017 94.68C 466.057 92.68 463.897 90.28 462.537 87.48C 461.257 84.6 460.617 81.04 460.617 76.8C 460.617 69.2 463.337 63.44 468.777 59.52C 474.217 55.52 482.217 53.52 492.777 53.52C 496.857 53.52 501.137 53.88 505.617 54.6C 510.177 55.24 513.937 56.04 516.897 57L 516.897 75.72C 509.857 72.92 503.017 71.52 496.377 71.52C 492.137 71.52 488.937 71.84 486.777 72.48C 484.697 73.12 483.657 74.52 483.657 76.68C 483.657 78.04 484.097 79.12 484.977 79.92C 485.857 80.72 487.177 81.44 488.937 82.08C 490.777 82.64 493.857 83.48 498.177 84.6C 504.337 86.28 509.057 88.32 512.337 90.72C 515.697 93.04 518.017 95.72 519.297 98.76C 520.577 101.8 521.217 105.48 521.217 109.8C 521.217 117 518.417 122.72 512.817 126.96C 507.297 131.12 499.137 133.2 488.337 133.2ZM 543.453 71.52L 521.733 71.52L 521.733 54.72L 587.733 54.72L 587.733 71.52L 566.013 71.52L 566.013 132L 543.453 132L 543.453 71.52ZM 624.199 133.2C 611.159 133.2 601.319 130.04 594.679 123.72C 588.039 117.32 584.719 107.28 584.719 93.6C 584.719 79.52 587.999 69.32 594.559 63C 601.199 56.68 611.079 53.52 624.199 53.52C 637.319 53.52 647.159 56.72 653.719 63.12C 660.359 69.44 663.679 79.6 663.679 93.6C 663.679 107.2 660.359 117.2 653.719 123.6C 647.079 130 637.239 133.2 624.199 133.2ZM 624.199 114C 629.959 114 634.119 112.4 636.679 109.2C 639.319 105.92 640.639 100.72 640.639 93.6C 640.639 86.08 639.359 80.72 636.799 77.52C 634.239 74.32 630.039 72.72 624.199 72.72C 618.359 72.72 614.159 74.32 611.599 77.52C 609.039 80.72 607.759 86.08 607.759 93.6C 607.759 100.72 609.039 105.92 611.599 109.2C 614.239 112.4 618.439 114 624.199 114ZM 672.08 54.72L 691.28 54.72L 720.44 95.64L 720.44 54.72L 743 54.72L 743 132L 723.68 132L 694.64 91.2L 694.64 132L 672.08 132L 672.08 54.72ZM 753.759 54.72L 812.319 54.72L 812.319 72L 776.319 72L 776.319 84.6L 807.879 84.6L 807.879 102.12L 776.319 102.12L 776.319 114.72L 812.319 114.72L 812.319 132L 753.759 132L 753.759 54.72Z"/>
</defs>
</svg>
